<?xml version="1.0" encoding="UTF-8"?>
<svg version="1.1" xmlns="http://www.w3.org/2000/svg" width="512" height="512">
<path d="M0 0 C0.7734375 -0.00773438 1.546875 -0.01546875 2.34375 -0.0234375 C5.03507776 0.47387306 5.88034029 1.19240978 7.5 3.375 C8.53066986 6.55162007 8.6161323 9.47118579 8.59765625 12.796875 C8.59443359 13.82167969 8.59121094 14.84648437 8.58789062 15.90234375 C8.57951172 16.96582031 8.57113281 18.02929688 8.5625 19.125 C8.55798828 20.20394531 8.55347656 21.28289063 8.54882812 22.39453125 C8.53705727 25.05474383 8.52061399 27.71484365 8.5 30.375 C9.76541626 30.42817383 9.76541626 30.42817383 11.05639648 30.48242188 C24.64997789 31.12715927 37.01354277 35.23723345 49.5 40.375 C49.78198242 39.85067383 50.06396484 39.32634766 50.35449219 38.78613281 C51.64572441 36.39507953 52.94772917 34.01005781 54.25 31.625 C54.6934375 30.8 55.136875 29.975 55.59375 29.125 C60.05783582 20.98460821 60.05783582 20.98460821 63.5 18.375 C66.2639018 17.59225437 68.71027184 17.71758455 71.5 18.375 C74.31118049 20.76450341 75.3174139 22.3055671 75.9375 25.9375 C75.28070128 31.0980614 72.68784506 34.86491617 70 39.25 C69.21302734 40.56871094 69.21302734 40.56871094 68.41015625 41.9140625 C67.11828763 44.07500638 65.81480027 46.22795914 64.5 48.375 C67.28971703 51.20306366 70.08560403 53.94262278 73.125 56.5 C80.67269909 63.05948042 88.05917911 69.93234689 93.5 78.375 C98.76423395 75.8436875 103.82622705 73.21281673 108.75 70.0625 C112.4956267 67.79402186 115.03743531 66.33719426 119.5 67.375 C122.375 68.875 122.375 68.875 124.5 71.375 C125.44327177 76.77737467 125.44327177 76.77737467 124.5 79.375 C120.2098788 83.55204824 115.36045566 86.34255529 110.125 89.1875 C109.38894531 89.59419922 108.65289062 90.00089844 107.89453125 90.41992188 C106.09950712 91.41068194 104.30019158 92.39366041 102.5 93.375 C103.20576172 95.17130859 103.20576172 95.17130859 103.92578125 97.00390625 C108.79936848 109.64913621 112.75471636 121.66526668 112.5 135.375 C113.70329956 135.35143433 113.70329956 135.35143433 114.9309082 135.32739258 C118.55803404 135.26511417 122.18504749 135.22603136 125.8125 135.1875 C127.07513672 135.16236328 128.33777344 135.13722656 129.63867188 135.11132812 C131.45141602 135.09682617 131.45141602 135.09682617 133.30078125 135.08203125 C134.41622314 135.0663208 135.53166504 135.05061035 136.6809082 135.03442383 C139.5 135.375 139.5 135.375 141.36254883 136.75854492 C142.86086759 138.8878363 142.90086728 140.2882725 142.875 142.875 C142.88273438 143.6484375 142.89046875 144.421875 142.8984375 145.21875 C142.3881049 147.98054993 141.74988415 148.70373332 139.5 150.375 C136.6809082 150.71557617 136.6809082 150.71557617 133.30078125 150.66796875 C132.09228516 150.65830078 130.88378906 150.64863281 129.63867188 150.63867188 C128.37603516 150.61353516 127.11339844 150.58839844 125.8125 150.5625 C124.53826172 150.54896484 123.26402344 150.53542969 121.95117188 150.52148438 C118.80035943 150.48608199 115.65038955 150.4366979 112.5 150.375 C112.52320313 151.44234375 112.54640625 152.5096875 112.5703125 153.609375 C112.70703102 163.02052247 112.29230289 172.20659987 111.21142578 181.55957031 C110.67881233 186.20593433 110.39980808 190.69728954 110.5 195.375 C111.11520508 195.48569824 111.73041016 195.59639648 112.36425781 195.71044922 C115.16069408 196.21730988 117.95531919 196.73355178 120.75 197.25 C121.71808594 197.42402344 122.68617188 197.59804687 123.68359375 197.77734375 C124.61816406 197.95136719 125.55273438 198.12539062 126.515625 198.3046875 C127.37446289 198.46179199 128.23330078 198.61889648 129.11816406 198.78076172 C132.321105 199.57985543 134.75831935 200.4214106 136.8125 203.0625 C137.82922829 206.48240423 137.37281149 208.94609774 136.5 212.375 C134.9375 214.3125 134.9375 214.3125 132.5 215.375 C126.47955033 215.64595328 120.9150055 214.9443251 115 213.875 C114.17757813 213.73191406 113.35515625 213.58882812 112.5078125 213.44140625 C110.50415373 213.09193088 108.50191702 212.73431844 106.5 212.375 C106.22119995 213.52947632 106.22119995 213.52947632 105.93676758 214.70727539 C99.08305467 242.95640026 99.08305467 242.95640026 94.5 255.375 C95.13550781 255.47039062 95.77101563 255.56578125 96.42578125 255.6640625 C100.66876877 256.64528706 104.63025503 258.18279604 108.6875 259.75 C109.50669922 260.05421875 110.32589844 260.3584375 111.16992188 260.671875 C111.95302734 260.97351563 112.73613281 261.27515625 113.54296875 261.5859375 C114.61067505 261.99271729 114.61067505 261.99271729 115.69995117 262.40771484 C117.5 263.375 117.5 263.375 119.5 266.375 C120.2781155 273.37803951 120.2781155 273.37803951 117.5 276.9375 C113.05441361 279.06767681 108.95930386 278.13111961 104.38378906 276.72436523 C102.27887238 275.96114894 100.20072014 275.1517452 98.125 274.3125 C93.44813225 272.22142755 93.44813225 272.22142755 88.5 271.375 C88.05011719 272.41914063 87.60023438 273.46328125 87.13671875 274.5390625 C81.69254803 287.04166385 75.68631843 299.22476949 69.5 311.375 C70.62305542 311.80631226 70.62305542 311.80631226 71.76879883 312.24633789 C75.46096946 313.77211825 78.76866597 315.75987317 82.1875 317.8125 C82.86361328 318.20759766 83.53972656 318.60269531 84.23632812 319.00976562 C87.4239522 320.91599654 89.41190211 322.24285316 91.5 325.375 C91.92255137 329.24838754 92.06667558 331.49098609 89.9375 334.8125 C86.52865526 336.99765689 84.52295736 336.76182282 80.5 336.375 C77.59754758 335.19060702 74.98220202 333.63440912 72.3125 332 C70.92348768 331.17916169 69.53417415 330.35883281 68.14453125 329.5390625 C67.53971924 329.17248535 66.93490723 328.8059082 66.31176758 328.42822266 C64.41185367 327.32375849 62.4745989 326.33849763 60.5 325.375 C59.89414062 326.30699219 59.28828125 327.23898437 58.6640625 328.19921875 C52.18639308 338.0846772 45.42697307 347.65293638 37.70703125 356.62109375 C35.29154343 359.04691581 35.29154343 359.04691581 35.5 361.375 C37.14093257 362.80525226 38.83991003 364.1692239 40.5625 365.5 C52.93994723 375.46272562 52.93994723 375.46272562 54.125 381.625 C53.40757462 384.78167169 52.95291885 386.23858681 50.5 388.375 C47.1875 389.375 47.1875 389.375 43.5 389.375 C37.99272044 386.16927011 33.66434525 381.89915659 29.0859375 377.51953125 C26.71292237 375.55157761 25.49949353 374.7340943 22.5 374.375 C21.79875 375.16003906 21.0975 375.94507813 20.375 376.75390625 C15.67587229 381.97386504 11.01363718 387.05000878 5.625 391.57421875 C2.8560664 393.92068638 0.17944395 396.36519458 -2.5 398.8125 C-3.44875 399.67746094 -4.3975 400.54242188 -5.375 401.43359375 C-6.07625 402.07425781 -6.7775 402.71492188 -7.5 403.375 C-5.44103246 406.57409676 -3.34907731 409.62768366 -0.921875 412.55859375 C-0.48359375 413.09419922 -0.0453125 413.62980469 0.40625 414.18164062 C1.30653206 415.27427946 2.2181962 416.35763294 3.140625 417.43164062 C5.56303289 420.43441707 6.48817562 422.26444781 6.90234375 426.13671875 C6.5 429.375 6.5 429.375 4.8125 431.75 C2.18803583 433.59421807 0.71070053 434.29669023 -2.5 434.375 C-10.39926734 430.34214877 -15.60913356 422.55846008 -20.5 415.375 C-24.78129314 416.83902815 -28.10610885 419.12307796 -31.6875 421.8125 C-39.95308312 427.88328005 -48.69327392 433.13426133 -57.5 438.375 C-56.37985733 441.42131393 -55.05932929 444.26687731 -53.51953125 447.1171875 C-53.16052734 447.79136719 -52.80152344 448.46554687 -52.43164062 449.16015625 C-51.68615712 450.55224586 -50.92830399 451.93778237 -50.15820312 453.31640625 C-47.66930645 458.0593128 -47.10893079 460.99304778 -48.5 466.375 C-49.5625 468.3125 -49.5625 468.3125 -51.5 469.375 C-57.02567976 470.1771148 -57.02567976 470.1771148 -59.5 469.375 C-63.51975119 465.25428175 -66.17974112 460.71067086 -68.8125 455.625 C-69.17150391 454.95339844 -69.53050781 454.28179687 -69.90039062 453.58984375 C-72.5 448.64811012 -72.5 448.64811012 -72.5 446.375 C-73.11294922 446.67680176 -73.72589844 446.97860352 -74.35742188 447.28955078 C-95.06247287 457.44462721 -95.06247287 457.44462721 -104.75 461.0625 C-105.72163086 461.42722412 -105.72163086 461.42722412 -106.71289062 461.79931641 C-109.46367513 462.79099955 -111.54889071 463.375 -114.5 463.375 C-114.28794922 463.94420166 -114.07589844 464.51340332 -113.85742188 465.09985352 C-112.89321828 467.70823614 -111.94653332 470.32265603 -111 472.9375 C-110.66613281 473.83275391 -110.33226562 474.72800781 -109.98828125 475.65039062 C-108.17815991 480.69287151 -106.87711205 484.93697823 -107.5 490.375 C-109.5625 493.375 -109.5625 493.375 -112.5 495.375 C-115.96263797 495.375 -118.33345187 495.30649073 -121.09692383 493.09985352 C-122.75150134 491.06582008 -123.47438382 489.25580282 -124.32421875 486.77734375 C-124.63037109 485.89369141 -124.93652344 485.01003906 -125.25195312 484.09960938 C-125.56068359 483.17986328 -125.86941406 482.26011719 -126.1875 481.3125 C-126.50783203 480.38888672 -126.82816406 479.46527344 -127.15820312 478.51367188 C-129.5 471.67802172 -129.5 471.67802172 -129.5 469.375 C-130.29059814 469.57657715 -131.08119629 469.7781543 -131.89575195 469.98583984 C-134.88263708 470.74548735 -137.87035582 471.50174604 -140.85864258 472.25585938 C-142.76643105 472.73834892 -144.67326771 473.22459705 -146.58007812 473.7109375 C-165.76676129 478.54537735 -165.76676129 478.54537735 -173.5 478.375 C-173.40912109 478.94943848 -173.31824219 479.52387695 -173.22460938 480.11572266 C-172.81168322 482.74309769 -172.40578859 485.37151354 -172 488 C-171.85691406 488.90363281 -171.71382812 489.80726563 -171.56640625 490.73828125 C-169.65636533 503.1990244 -169.65636533 503.1990244 -172.5625 507.25 C-175.5 509.375 -175.5 509.375 -179.0625 509.9375 C-183.22990705 509.25556066 -184.04880301 508.77831484 -186.5 505.375 C-187.40114306 501.8925718 -187.79447351 498.38349527 -188.1875 494.8125 C-188.41845388 492.91510545 -188.65143862 491.0179567 -188.88671875 489.12109375 C-188.98170654 488.28247803 -189.07669434 487.4438623 -189.17456055 486.57983398 C-189.45949564 484.2059948 -189.45949564 484.2059948 -190.5 481.375 C-191.40069214 481.4821936 -191.40069214 481.4821936 -192.31958008 481.59155273 C-200.94671355 482.50593465 -209.52674755 482.48876995 -218.1875 482.4375 C-219.67903494 482.43247144 -221.17057154 482.42791095 -222.66210938 482.42382812 C-226.27477462 482.41293804 -229.88737632 482.39574936 -233.5 482.375 C-233.48428955 483.3808313 -233.48428955 483.3808313 -233.46826172 484.40698242 C-233.42656829 487.45878316 -233.40063147 490.51052384 -233.375 493.5625 C-233.35824219 494.61759766 -233.34148437 495.67269531 -233.32421875 496.75976562 C-233.31777344 497.78134766 -233.31132812 498.80292969 -233.3046875 499.85546875 C-233.29421387 500.79285889 -233.28374023 501.73024902 -233.27294922 502.69604492 C-233.61613289 506.74524318 -234.62026032 509.49526032 -237.5 512.375 C-239.55859375 512.67578125 -239.55859375 512.67578125 -241.9375 512.6875 C-242.71996094 512.70425781 -243.50242187 512.72101562 -244.30859375 512.73828125 C-247.11305431 512.27337068 -247.81313135 511.65218324 -249.5 509.375 C-249.84057617 506.5559082 -249.84057617 506.5559082 -249.79296875 503.17578125 C-249.78330078 501.96728516 -249.77363281 500.75878906 -249.76367188 499.51367188 C-249.73853516 498.25103516 -249.71339844 496.98839844 -249.6875 495.6875 C-249.67396484 494.41326172 -249.66042969 493.13902344 -249.64648438 491.82617188 C-249.61108199 488.67535943 -249.5616979 485.52538955 -249.5 482.375 C-250.28286377 482.32529053 -251.06572754 482.27558105 -251.87231445 482.22436523 C-257.74178273 481.8028311 -263.07903752 481.21317809 -268.6875 479.4375 C-273.91980788 477.80511925 -279.14159036 476.50599286 -284.5 475.375 C-284.81751221 475.94009277 -285.13502441 476.50518555 -285.4621582 477.08740234 C-286.90502264 479.64576967 -288.35860271 482.19788773 -289.8125 484.75 C-290.56176758 486.08417969 -290.56176758 486.08417969 -291.32617188 487.4453125 C-291.81279297 488.29609375 -292.29941406 489.146875 -292.80078125 490.0234375 C-293.24591064 490.80895996 -293.69104004 491.59448242 -294.1496582 492.40380859 C-295.5 494.375 -295.5 494.375 -298.5 496.375 C-302.01375259 496.69443205 -304.6296631 496.70974496 -307.9375 495.4375 C-310.11251898 492.56647495 -309.92565641 490.39510547 -309.86303711 486.86401367 C-309.22250919 482.47249911 -306.95790323 479.1600977 -304.5625 475.5 C-303.63469841 474.02470615 -302.7088317 472.54819322 -301.78515625 471.0703125 C-301.16459351 470.1114917 -301.16459351 470.1114917 -300.53149414 469.13330078 C-299.34075495 467.24272447 -299.34075495 467.24272447 -298.5 464.375 C-299.08265625 464.10945313 -299.6653125 463.84390625 -300.265625 463.5703125 C-308.23409942 459.3074573 -316.47583334 450.8416846 -321.5 443.375 C-321.5 442.715 -321.5 442.055 -321.5 441.375 C-329.84770862 445.37012474 -329.84770862 445.37012474 -337.6875 450.25 C-341.29158997 452.57984059 -344.31283948 453.06851224 -348.578125 452.7890625 C-350.5 452.375 -350.5 452.375 -352.5625 450.8125 C-353.8844219 447.37550305 -354.01302047 445.03027083 -353.5 441.375 C-349.73636536 436.84402238 -345.28908456 434.30249314 -340.1875 431.5625 C-339.44693359 431.15580078 -338.70636719 430.74910156 -337.94335938 430.33007812 C-336.13310452 429.33735772 -334.31712245 428.35509307 -332.5 427.375 C-333.09166363 423.25165345 -334.03436041 419.54320111 -335.4375 415.625 C-338.1186598 407.7570147 -339.62176259 400.7055908 -339.5 392.375 C-340.30219971 392.39071045 -341.10439941 392.4064209 -341.9309082 392.42260742 C-345.55803404 392.48488583 -349.18504749 392.52396864 -352.8125 392.5625 C-354.70645508 392.60020508 -354.70645508 392.60020508 -356.63867188 392.63867188 C-358.45141602 392.65317383 -358.45141602 392.65317383 -360.30078125 392.66796875 C-361.41622314 392.6836792 -362.53166504 392.69938965 -363.6809082 392.71557617 C-366.5 392.375 -366.5 392.375 -368.36254883 390.99145508 C-369.86086759 388.8621637 -369.90086728 387.4617275 -369.875 384.875 C-369.88273437 384.1015625 -369.89046875 383.328125 -369.8984375 382.53125 C-369.3881049 379.76945007 -368.74988415 379.04626668 -366.5 377.375 C-363.6809082 377.03442383 -363.6809082 377.03442383 -360.30078125 377.08203125 C-359.09228516 377.09169922 -357.88378906 377.10136719 -356.63867188 377.11132812 C-355.37603516 377.13646484 -354.11339844 377.16160156 -352.8125 377.1875 C-351.53826172 377.20103516 -350.26402344 377.21457031 -348.95117188 377.22851562 C-345.80035943 377.26391801 -342.65038955 377.3133021 -339.5 377.375 C-339.53738281 376.39402344 -339.57476562 375.41304688 -339.61328125 374.40234375 C-339.61001756 370.07577545 -338.72291373 366.12057146 -337.6875 361.9375 C-337.4390332 360.86918945 -337.4390332 360.86918945 -337.18554688 359.77929688 C-336.29671197 356.08643942 -335.24031766 352.56910407 -333.86328125 349.02734375 C-332.32515223 345.55631506 -332.32515223 345.55631506 -332.5 342.375 C-334.25578046 340.97095558 -334.25578046 340.97095558 -336.5859375 339.78125 C-337.43414062 339.30816406 -338.28234375 338.83507812 -339.15625 338.34765625 C-340.50203125 337.61869141 -340.50203125 337.61869141 -341.875 336.875 C-343.63632578 335.91265243 -345.3943077 334.94415248 -347.1484375 333.96875 C-348.32672119 333.32969727 -348.32672119 333.32969727 -349.52880859 332.67773438 C-351.5 331.375 -351.5 331.375 -353.5 328.375 C-353.81943205 324.86124741 -353.83474496 322.2453369 -352.5625 318.9375 C-349.69147495 316.76248102 -347.52010547 316.94934359 -343.98901367 317.01196289 C-339.59749911 317.65249081 -336.2850977 319.91709677 -332.625 322.3125 C-331.14970615 323.24030159 -329.67319322 324.1661683 -328.1953125 325.08984375 C-327.2364917 325.71040649 -327.2364917 325.71040649 -326.25830078 326.34350586 C-324.36772447 327.53424505 -324.36772447 327.53424505 -321.5 328.375 C-321.23445313 327.79234375 -320.96890625 327.2096875 -320.6953125 326.609375 C-316.4324573 318.64090058 -307.9666846 310.39916666 -300.5 305.375 C-299.84 305.375 -299.18 305.375 -298.5 305.375 C-302.49512474 297.02729138 -302.49512474 297.02729138 -307.375 289.1875 C-309.70484059 285.58341003 -310.19351224 282.56216052 -309.9140625 278.296875 C-309.5 276.375 -309.5 276.375 -307.9375 274.3125 C-304.50050305 272.9905781 -302.15527083 272.86197953 -298.5 273.375 C-293.96902238 277.13863464 -291.42749314 281.58591544 -288.6875 286.6875 C-288.28080078 287.42806641 -287.87410156 288.16863281 -287.45507812 288.93164062 C-286.46235772 290.74189548 -285.48009307 292.55787755 -284.5 294.375 C-280.37665345 293.78333637 -276.66820111 292.84063959 -272.75 291.4375 C-264.8820147 288.7563402 -257.8305908 287.25323741 -249.5 287.375 C-249.51571045 286.57280029 -249.5314209 285.77060059 -249.54760742 284.9440918 C-249.60988583 281.31696596 -249.64896864 277.68995251 -249.6875 274.0625 C-249.71263672 272.79986328 -249.73777344 271.53722656 -249.76367188 270.23632812 C-249.77333984 269.02783203 -249.78300781 267.81933594 -249.79296875 266.57421875 C-249.8086792 265.45877686 -249.82438965 264.34333496 -249.84057617 263.1940918 C-249.5 260.375 -249.5 260.375 -248.11645508 258.51245117 C-245.9871637 257.01413241 -244.5867275 256.97413272 -242 257 C-241.2265625 256.99226563 -240.453125 256.98453125 -239.65625 256.9765625 C-236.96492224 257.47387306 -236.11965971 258.19240978 -234.5 260.375 C-233.49879992 263.48463971 -233.38342467 266.32404357 -233.40234375 269.578125 C-233.40556641 270.5578125 -233.40878906 271.5375 -233.41210938 272.546875 C-233.42048828 273.56265625 -233.42886719 274.5784375 -233.4375 275.625 C-233.44201172 276.65625 -233.44652344 277.6875 -233.45117188 278.75 C-233.46293912 281.29172573 -233.47937989 283.83333319 -233.5 286.375 C-204.88093142 283.01003444 -204.88093142 283.01003444 -180.5 269.375 C-180.82798584 268.89144043 -181.15597168 268.40788086 -181.49389648 267.90966797 C-182.9859356 265.69686895 -184.46174569 263.47368926 -185.9375 261.25 C-186.45376953 260.48945313 -186.97003906 259.72890625 -187.50195312 258.9453125 C-190.22591996 254.81485299 -192.37076281 251.4760679 -192.5 246.375 C-191.36220128 244.04768444 -190.33159286 242.20659286 -188.5 240.375 C-182.8697479 239.81197479 -182.8697479 239.81197479 -180.5 240.375 C-176.34593289 243.87073635 -173.54399908 248.01396485 -170.6875 252.5625 C-170.28080078 253.19091797 -169.87410156 253.81933594 -169.45507812 254.46679688 C-166.5 259.11049107 -166.5 259.11049107 -166.5 261.375 C-151.00078877 249.57120256 -139.0928906 236.43827613 -129.5 219.375 C-130.58539063 218.84390625 -131.67078125 218.3128125 -132.7890625 217.765625 C-134.23448239 217.0523009 -135.67978889 216.33874699 -137.125 215.625 C-138.19427734 215.10292969 -138.19427734 215.10292969 -139.28515625 214.5703125 C-150.73971037 208.89557927 -150.73971037 208.89557927 -152.5 205.375 C-152.875 202 -152.875 202 -152.5 198.375 C-150.08532551 195.60522632 -148.55296756 194.51571188 -144.8984375 194.02734375 C-140.19240357 194.50876561 -136.48709239 196.35213009 -132.25 198.375 C-130.64206546 199.12808327 -129.03275365 199.87823506 -127.421875 200.625 C-126.71643555 200.96015625 -126.01099609 201.2953125 -125.28417969 201.640625 C-123.51332401 202.50187417 -123.51332401 202.50187417 -121.5 202.375 C-116.12223004 185.05119144 -113.92835393 168.44298827 -112.5 150.375 C-113.30219971 150.39071045 -114.10439941 150.4064209 -114.9309082 150.42260742 C-118.55803404 150.48488583 -122.18504749 150.52396864 -125.8125 150.5625 C-127.07513672 150.58763672 -128.33777344 150.61277344 -129.63867188 150.63867188 C-131.45141602 150.65317383 -131.45141602 150.65317383 -133.30078125 150.66796875 C-134.97394409 150.69153442 -134.97394409 150.69153442 -136.6809082 150.71557617 C-139.5 150.375 -139.5 150.375 -141.36254883 148.99145508 C-142.86086759 146.8621637 -142.90086728 145.4617275 -142.875 142.875 C-142.88273438 142.1015625 -142.89046875 141.328125 -142.8984375 140.53125 C-142.3881049 137.76945007 -141.74988415 137.04626668 -139.5 135.375 C-136.6809082 135.03442383 -136.6809082 135.03442383 -133.30078125 135.08203125 C-132.09228516 135.09169922 -130.88378906 135.10136719 -129.63867188 135.11132812 C-128.37603516 135.13646484 -127.11339844 135.16160156 -125.8125 135.1875 C-124.53826172 135.20103516 -123.26402344 135.21457031 -121.95117188 135.22851562 C-118.80035943 135.26391801 -115.65038955 135.3133021 -112.5 135.375 C-112.53351563 134.2303125 -112.56703125 133.085625 -112.6015625 131.90625 C-112.59562083 127.39850605 -111.88153046 123.25699532 -110.875 118.875 C-110.61638184 117.72281982 -110.61638184 117.72281982 -110.35253906 116.54736328 C-108.46087954 108.54633195 -105.60552681 100.97318893 -102.5 93.375 C-103.05985596 93.05748779 -103.61971191 92.73997559 -104.1965332 92.4128418 C-106.73806925 90.96772698 -109.27529751 89.51520872 -111.8125 88.0625 C-112.69357422 87.56298828 -113.57464844 87.06347656 -114.48242188 86.54882812 C-115.75375977 85.81889648 -115.75375977 85.81889648 -117.05078125 85.07421875 C-117.83106689 84.62908936 -118.61135254 84.18395996 -119.4152832 83.7253418 C-121.45387025 82.4048798 -122.98950943 81.27628182 -124.5 79.375 C-124.89281877 76.28155222 -125.13008105 74.32924795 -124.5 71.375 C-122.11049659 68.56381951 -120.5694329 67.5575861 -116.9375 66.9375 C-111.7769386 67.59429872 -108.01008383 70.18715494 -103.625 72.875 C-102.74585938 73.39964844 -101.86671875 73.92429687 -100.9609375 74.46484375 C-98.79999362 75.75671237 -96.64704086 77.06019973 -94.5 78.375 C-91.67193634 75.58528297 -88.93237722 72.78939597 -86.375 69.75 C-79.81551958 62.20230091 -72.94265311 54.81582089 -64.5 49.375 C-67.0313125 44.11076605 -69.66218327 39.04877295 -72.8125 34.125 C-75.08097814 30.3793733 -76.53780574 27.83756469 -75.5 23.375 C-74 20.5 -74 20.5 -71.5 18.375 C-66.09762533 17.43172823 -66.09762533 17.43172823 -63.5 18.375 C-59.32295176 22.6651212 -56.53244471 27.51454434 -53.6875 32.75 C-53.28080078 33.48605469 -52.87410156 34.22210938 -52.45507812 34.98046875 C-51.46431806 36.77549288 -50.48133959 38.57480842 -49.5 40.375 C-48.30246094 39.90449219 -47.10492188 39.43398438 -45.87109375 38.94921875 C-33.22586379 34.07563152 -21.20973332 30.12028364 -7.5 30.375 C-7.51571045 29.57280029 -7.5314209 28.77060059 -7.54760742 27.9440918 C-7.60988583 24.31696596 -7.64896864 20.68995251 -7.6875 17.0625 C-7.72520508 15.16854492 -7.72520508 15.16854492 -7.76367188 13.23632812 C-7.77333984 12.02783203 -7.78300781 10.81933594 -7.79296875 9.57421875 C-7.8086792 8.45877686 -7.82438965 7.34333496 -7.84057617 6.1940918 C-7.5 3.375 -7.5 3.375 -6.11645508 1.51245117 C-3.9871637 0.01413241 -2.5867275 -0.02586728 0 0 Z " fill="#6EAB3C" transform="translate(369.5,-0.375)"/>
<path d="M0 0 C1.03640625 0.44472656 2.0728125 0.88945313 3.140625 1.34765625 C17.90469776 8.5820519 28.73074148 22.04025209 35 37 C35.39445312 37.93328125 35.78890625 38.8665625 36.1953125 39.828125 C48.01912854 73.39784047 35.47187257 123.78156076 24 156 C23.71962891 156.80356934 23.43925781 157.60713867 23.15039062 158.43505859 C11.46714545 191.63430218 -5.73878797 221.81780651 -28 249 C-28.6813501 249.83797119 -28.6813501 249.83797119 -29.37646484 250.69287109 C-40.88476979 264.76488726 -53.62843582 277.8489544 -68 289 C-69.16127991 289.94755571 -70.31996589 290.89829595 -71.4765625 291.8515625 C-99.71527021 315.03203854 -132.37420732 331.60969398 -167 343 C-167.77746582 343.25861816 -168.55493164 343.51723633 -169.35595703 343.78369141 C-198.64175283 353.39028457 -229.02739212 356.21942384 -259.6875 356.375 C-260.51629669 356.38294586 -261.34509338 356.39089172 -262.19900513 356.39907837 C-279.98554152 356.53070922 -294.69125751 353.51144311 -308.19140625 340.9375 C-318.90007802 329.46557517 -323.61443666 315.61894054 -323.2421875 300.06640625 C-322.58788007 286.18018856 -316.16646871 273.47097588 -306 264 C-294.04780144 254.3149406 -282.35286696 250.88079027 -267.1875 250.5625 C-226.75433243 249.14356503 -190.53111875 235.04848515 -159 210 C-158.45311523 209.57122559 -157.90623047 209.14245117 -157.34277344 208.70068359 C-151.21939654 203.9280494 -151.21939654 203.9280494 -147.8125 197.1875 C-147.82085757 194.15797583 -147.82085757 194.15797583 -148.75390625 192.12890625 C-149 190 -149 190 -147.4453125 187.421875 C-141.10838767 180.12481004 -141.10838767 180.12481004 -137.67578125 179.73828125 C-136.93714844 179.84527344 -136.19851563 179.95226562 -135.4375 180.0625 C-133.19485111 180.42215348 -133.19485111 180.42215348 -131 180 C-127.58485421 176.82417314 -125.37059379 172.98712196 -123 169 C-122.34128906 167.95070312 -121.68257812 166.90140625 -121.00390625 165.8203125 C-111.4052331 149.91607824 -105.25710801 132.54858287 -100.875 114.5625 C-100.63668457 113.59739502 -100.63668457 113.59739502 -100.39355469 112.61279297 C-96.98197327 98.0219979 -96.65152902 83.70556138 -96.61914062 68.80419922 C-96.53928497 46.86385737 -91.48150023 28.63620597 -75.6171875 12.58984375 C-54.5046583 -7.23210765 -26.23431619 -11.40828014 0 0 Z " fill="#CDDD50" transform="translate(398,81)"/>
<path d="M0 0 C0.7734375 -0.00773438 1.546875 -0.01546875 2.34375 -0.0234375 C5.03507776 0.47387306 5.88034029 1.19240978 7.5 3.375 C8.53066986 6.55162007 8.6161323 9.47118579 8.59765625 12.796875 C8.59443359 13.82167969 8.59121094 14.84648437 8.58789062 15.90234375 C8.57951172 16.96582031 8.57113281 18.02929688 8.5625 19.125 C8.55798828 20.20394531 8.55347656 21.28289063 8.54882812 22.39453125 C8.53705727 25.05474383 8.52061399 27.71484365 8.5 30.375 C9.76541626 30.42817383 9.76541626 30.42817383 11.05639648 30.48242188 C24.64997789 31.12715927 37.01354277 35.23723345 49.5 40.375 C49.78198242 39.85067383 50.06396484 39.32634766 50.35449219 38.78613281 C51.64572441 36.39507953 52.94772917 34.01005781 54.25 31.625 C54.6934375 30.8 55.136875 29.975 55.59375 29.125 C60.05783582 20.98460821 60.05783582 20.98460821 63.5 18.375 C66.2639018 17.59225437 68.71027184 17.71758455 71.5 18.375 C74.31118049 20.76450341 75.3174139 22.3055671 75.9375 25.9375 C75.28070128 31.0980614 72.68784506 34.86491617 70 39.25 C69.21302734 40.56871094 69.21302734 40.56871094 68.41015625 41.9140625 C67.11828763 44.07500638 65.81480027 46.22795914 64.5 48.375 C67.28971703 51.20306366 70.08560403 53.94262278 73.125 56.5 C80.67269909 63.05948042 88.05917911 69.93234689 93.5 78.375 C98.76423395 75.8436875 103.82622705 73.21281673 108.75 70.0625 C112.4956267 67.79402186 115.03743531 66.33719426 119.5 67.375 C122.375 68.875 122.375 68.875 124.5 71.375 C125.44327177 76.77737467 125.44327177 76.77737467 124.5 79.375 C120.2098788 83.55204824 115.36045566 86.34255529 110.125 89.1875 C109.38894531 89.59419922 108.65289062 90.00089844 107.89453125 90.41992188 C106.09950712 91.41068194 104.30019158 92.39366041 102.5 93.375 C103.20576172 95.17130859 103.20576172 95.17130859 103.92578125 97.00390625 C108.79936848 109.64913621 112.75471636 121.66526668 112.5 135.375 C113.70329956 135.35143433 113.70329956 135.35143433 114.9309082 135.32739258 C118.55803404 135.26511417 122.18504749 135.22603136 125.8125 135.1875 C127.07513672 135.16236328 128.33777344 135.13722656 129.63867188 135.11132812 C131.45141602 135.09682617 131.45141602 135.09682617 133.30078125 135.08203125 C134.41622314 135.0663208 135.53166504 135.05061035 136.6809082 135.03442383 C139.5 135.375 139.5 135.375 141.36254883 136.75854492 C142.86086759 138.8878363 142.90086728 140.2882725 142.875 142.875 C142.88273438 143.6484375 142.89046875 144.421875 142.8984375 145.21875 C142.3881049 147.98054993 141.74988415 148.70373332 139.5 150.375 C136.6809082 150.71557617 136.6809082 150.71557617 133.30078125 150.66796875 C132.09228516 150.65830078 130.88378906 150.64863281 129.63867188 150.63867188 C128.37603516 150.61353516 127.11339844 150.58839844 125.8125 150.5625 C124.53826172 150.54896484 123.26402344 150.53542969 121.95117188 150.52148438 C118.80035943 150.48608199 115.65038955 150.4366979 112.5 150.375 C112.52320313 151.44234375 112.54640625 152.5096875 112.5703125 153.609375 C112.70703102 163.02052247 112.29230289 172.20659987 111.21142578 181.55957031 C110.67881233 186.20593433 110.39980808 190.69728954 110.5 195.375 C111.11520508 195.48569824 111.73041016 195.59639648 112.36425781 195.71044922 C115.16069408 196.21730988 117.95531919 196.73355178 120.75 197.25 C121.71808594 197.42402344 122.68617188 197.59804687 123.68359375 197.77734375 C124.61816406 197.95136719 125.55273438 198.12539062 126.515625 198.3046875 C127.37446289 198.46179199 128.23330078 198.61889648 129.11816406 198.78076172 C132.321105 199.57985543 134.75831935 200.4214106 136.8125 203.0625 C137.82922829 206.48240423 137.37281149 208.94609774 136.5 212.375 C134.9375 214.3125 134.9375 214.3125 132.5 215.375 C126.47955033 215.64595328 120.9150055 214.9443251 115 213.875 C114.17757813 213.73191406 113.35515625 213.58882812 112.5078125 213.44140625 C110.50415373 213.09193088 108.50191702 212.73431844 106.5 212.375 C106.22119995 213.52947632 106.22119995 213.52947632 105.93676758 214.70727539 C99.08305467 242.95640026 99.08305467 242.95640026 94.5 255.375 C95.13550781 255.47039062 95.77101563 255.56578125 96.42578125 255.6640625 C100.66876877 256.64528706 104.63025503 258.18279604 108.6875 259.75 C109.50669922 260.05421875 110.32589844 260.3584375 111.16992188 260.671875 C111.95302734 260.97351563 112.73613281 261.27515625 113.54296875 261.5859375 C114.61067505 261.99271729 114.61067505 261.99271729 115.69995117 262.40771484 C117.5 263.375 117.5 263.375 119.5 266.375 C120.2781155 273.37803951 120.2781155 273.37803951 117.5 276.9375 C113.05441361 279.06767681 108.95930386 278.13111961 104.38378906 276.72436523 C102.27887238 275.96114894 100.20072014 275.1517452 98.125 274.3125 C93.44813225 272.22142755 93.44813225 272.22142755 88.5 271.375 C88.05011719 272.41914063 87.60023438 273.46328125 87.13671875 274.5390625 C81.69254803 287.04166385 75.68631843 299.22476949 69.5 311.375 C70.62305542 311.80631226 70.62305542 311.80631226 71.76879883 312.24633789 C75.46096946 313.77211825 78.76866597 315.75987317 82.1875 317.8125 C82.86361328 318.20759766 83.53972656 318.60269531 84.23632812 319.00976562 C87.4239522 320.91599654 89.41190211 322.24285316 91.5 325.375 C91.92255137 329.24838754 92.06667558 331.49098609 89.9375 334.8125 C86.52865526 336.99765689 84.52295736 336.76182282 80.5 336.375 C77.59754758 335.19060702 74.98220202 333.63440912 72.3125 332 C70.92348768 331.17916169 69.53417415 330.35883281 68.14453125 329.5390625 C67.53971924 329.17248535 66.93490723 328.8059082 66.31176758 328.42822266 C64.41185367 327.32375849 62.4745989 326.33849763 60.5 325.375 C59.89414062 326.30699219 59.28828125 327.23898437 58.6640625 328.19921875 C52.18639308 338.0846772 45.42697307 347.65293638 37.70703125 356.62109375 C35.29154343 359.04691581 35.29154343 359.04691581 35.5 361.375 C37.14093257 362.80525226 38.83991003 364.1692239 40.5625 365.5 C52.93994723 375.46272562 52.93994723 375.46272562 54.125 381.625 C53.40757462 384.78167169 52.95291885 386.23858681 50.5 388.375 C47.1875 389.375 47.1875 389.375 43.5 389.375 C37.99272044 386.16927011 33.66434525 381.89915659 29.0859375 377.51953125 C26.71292237 375.55157761 25.49949353 374.7340943 22.5 374.375 C21.79875 375.16003906 21.0975 375.94507813 20.375 376.75390625 C15.67587229 381.97386504 11.01363718 387.05000878 5.625 391.57421875 C2.8560664 393.92068638 0.17944395 396.36519458 -2.5 398.8125 C-3.44875 399.67746094 -4.3975 400.54242188 -5.375 401.43359375 C-6.07625 402.07425781 -6.7775 402.71492188 -7.5 403.375 C-5.44103246 406.57409676 -3.34907731 409.62768366 -0.921875 412.55859375 C-0.48359375 413.09419922 -0.0453125 413.62980469 0.40625 414.18164062 C1.30653206 415.27427946 2.2181962 416.35763294 3.140625 417.43164062 C5.56303289 420.43441707 6.48817562 422.26444781 6.90234375 426.13671875 C6.5 429.375 6.5 429.375 4.8125 431.75 C2.18803583 433.59421807 0.71070053 434.29669023 -2.5 434.375 C-10.39926734 430.34214877 -15.60913356 422.55846008 -20.5 415.375 C-24.78129314 416.83902815 -28.10610885 419.12307796 -31.6875 421.8125 C-39.95308312 427.88328005 -48.69327392 433.13426133 -57.5 438.375 C-56.37985733 441.42131393 -55.05932929 444.26687731 -53.51953125 447.1171875 C-53.16052734 447.79136719 -52.80152344 448.46554687 -52.43164062 449.16015625 C-51.68615712 450.55224586 -50.92830399 451.93778237 -50.15820312 453.31640625 C-47.66930645 458.0593128 -47.10893079 460.99304778 -48.5 466.375 C-49.5625 468.3125 -49.5625 468.3125 -51.5 469.375 C-57.02567976 470.1771148 -57.02567976 470.1771148 -59.5 469.375 C-63.51975119 465.25428175 -66.17974112 460.71067086 -68.8125 455.625 C-69.17150391 454.95339844 -69.53050781 454.28179687 -69.90039062 453.58984375 C-72.5 448.64811012 -72.5 448.64811012 -72.5 446.375 C-73.11294922 446.67680176 -73.72589844 446.97860352 -74.35742188 447.28955078 C-95.06247287 457.44462721 -95.06247287 457.44462721 -104.75 461.0625 C-105.72163086 461.42722412 -105.72163086 461.42722412 -106.71289062 461.79931641 C-109.46367513 462.79099955 -111.54889071 463.375 -114.5 463.375 C-114.28794922 463.94420166 -114.07589844 464.51340332 -113.85742188 465.09985352 C-112.89321828 467.70823614 -111.94653332 470.32265603 -111 472.9375 C-110.66613281 473.83275391 -110.33226562 474.72800781 -109.98828125 475.65039062 C-108.17815991 480.69287151 -106.87711205 484.93697823 -107.5 490.375 C-109.5625 493.375 -109.5625 493.375 -112.5 495.375 C-115.96263797 495.375 -118.33345187 495.30649073 -121.09692383 493.09985352 C-122.75150134 491.06582008 -123.47438382 489.25580282 -124.32421875 486.77734375 C-124.63037109 485.89369141 -124.93652344 485.01003906 -125.25195312 484.09960938 C-125.56068359 483.17986328 -125.86941406 482.26011719 -126.1875 481.3125 C-126.50783203 480.38888672 -126.82816406 479.46527344 -127.15820312 478.51367188 C-129.5 471.67802172 -129.5 471.67802172 -129.5 469.375 C-130.29059814 469.57657715 -131.08119629 469.7781543 -131.89575195 469.98583984 C-134.88263708 470.74548735 -137.87035582 471.50174604 -140.85864258 472.25585938 C-142.76643105 472.73834892 -144.67326771 473.22459705 -146.58007812 473.7109375 C-165.76676129 478.54537735 -165.76676129 478.54537735 -173.5 478.375 C-173.40912109 478.94943848 -173.31824219 479.52387695 -173.22460938 480.11572266 C-172.81168322 482.74309769 -172.40578859 485.37151354 -172 488 C-171.85691406 488.90363281 -171.71382812 489.80726563 -171.56640625 490.73828125 C-169.65636533 503.1990244 -169.65636533 503.1990244 -172.5625 507.25 C-175.5 509.375 -175.5 509.375 -179.0625 509.9375 C-183.22990705 509.25556066 -184.04880301 508.77831484 -186.5 505.375 C-187.40114306 501.8925718 -187.79447351 498.38349527 -188.1875 494.8125 C-188.41845388 492.91510545 -188.65143862 491.0179567 -188.88671875 489.12109375 C-188.98170654 488.28247803 -189.07669434 487.4438623 -189.17456055 486.57983398 C-189.45949564 484.2059948 -189.45949564 484.2059948 -190.5 481.375 C-191.40069214 481.4821936 -191.40069214 481.4821936 -192.31958008 481.59155273 C-200.94671355 482.50593465 -209.52674755 482.48876995 -218.1875 482.4375 C-219.67903494 482.43247144 -221.17057154 482.42791095 -222.66210938 482.42382812 C-226.27477462 482.41293804 -229.88737632 482.39574936 -233.5 482.375 C-233.48428955 483.3808313 -233.48428955 483.3808313 -233.46826172 484.40698242 C-233.42656829 487.45878316 -233.40063147 490.51052384 -233.375 493.5625 C-233.35824219 494.61759766 -233.34148437 495.67269531 -233.32421875 496.75976562 C-233.31777344 497.78134766 -233.31132812 498.80292969 -233.3046875 499.85546875 C-233.29421387 500.79285889 -233.28374023 501.73024902 -233.27294922 502.69604492 C-233.61613289 506.74524318 -234.62026032 509.49526032 -237.5 512.375 C-239.55859375 512.67578125 -239.55859375 512.67578125 -241.9375 512.6875 C-242.71996094 512.70425781 -243.50242187 512.72101562 -244.30859375 512.73828125 C-247.11305431 512.27337068 -247.81313135 511.65218324 -249.5 509.375 C-249.84057617 506.5559082 -249.84057617 506.5559082 -249.79296875 503.17578125 C-249.78330078 501.96728516 -249.77363281 500.75878906 -249.76367188 499.51367188 C-249.73853516 498.25103516 -249.71339844 496.98839844 -249.6875 495.6875 C-249.67396484 494.41326172 -249.66042969 493.13902344 -249.64648438 491.82617188 C-249.61108199 488.67535943 -249.5616979 485.52538955 -249.5 482.375 C-250.28286377 482.32529053 -251.06572754 482.27558105 -251.87231445 482.22436523 C-257.74178273 481.8028311 -263.07903752 481.21317809 -268.6875 479.4375 C-273.91980788 477.80511925 -279.14159036 476.50599286 -284.5 475.375 C-284.81751221 475.94009277 -285.13502441 476.50518555 -285.4621582 477.08740234 C-286.90502264 479.64576967 -288.35860271 482.19788773 -289.8125 484.75 C-290.56176758 486.08417969 -290.56176758 486.08417969 -291.32617188 487.4453125 C-291.81279297 488.29609375 -292.29941406 489.146875 -292.80078125 490.0234375 C-293.24591064 490.80895996 -293.69104004 491.59448242 -294.1496582 492.40380859 C-295.5 494.375 -295.5 494.375 -298.5 496.375 C-302.01375259 496.69443205 -304.6296631 496.70974496 -307.9375 495.4375 C-310.11251898 492.56647495 -309.92565641 490.39510547 -309.86303711 486.86401367 C-309.22250919 482.47249911 -306.95790323 479.1600977 -304.5625 475.5 C-303.63469841 474.02470615 -302.7088317 472.54819322 -301.78515625 471.0703125 C-301.16459351 470.1114917 -301.16459351 470.1114917 -300.53149414 469.13330078 C-299.34075495 467.24272447 -299.34075495 467.24272447 -298.5 464.375 C-299.08265625 464.10945313 -299.6653125 463.84390625 -300.265625 463.5703125 C-308.23409942 459.3074573 -316.47583334 450.8416846 -321.5 443.375 C-321.5 442.715 -321.5 442.055 -321.5 441.375 C-329.84770862 445.37012474 -329.84770862 445.37012474 -337.6875 450.25 C-341.29158997 452.57984059 -344.31283948 453.06851224 -348.578125 452.7890625 C-350.5 452.375 -350.5 452.375 -352.5625 450.8125 C-353.8844219 447.37550305 -354.01302047 445.03027083 -353.5 441.375 C-349.73636536 436.84402238 -345.28908456 434.30249314 -340.1875 431.5625 C-339.44693359 431.15580078 -338.70636719 430.74910156 -337.94335938 430.33007812 C-336.13310452 429.33735772 -334.31712245 428.35509307 -332.5 427.375 C-333.09166363 423.25165345 -334.03436041 419.54320111 -335.4375 415.625 C-338.1186598 407.7570147 -339.62176259 400.7055908 -339.5 392.375 C-340.30219971 392.39071045 -341.10439941 392.4064209 -341.9309082 392.42260742 C-345.55803404 392.48488583 -349.18504749 392.52396864 -352.8125 392.5625 C-354.70645508 392.60020508 -354.70645508 392.60020508 -356.63867188 392.63867188 C-358.45141602 392.65317383 -358.45141602 392.65317383 -360.30078125 392.66796875 C-361.41622314 392.6836792 -362.53166504 392.69938965 -363.6809082 392.71557617 C-366.5 392.375 -366.5 392.375 -368.36254883 390.99145508 C-369.86086759 388.8621637 -369.90086728 387.4617275 -369.875 384.875 C-369.88273437 384.1015625 -369.89046875 383.328125 -369.8984375 382.53125 C-369.3881049 379.76945007 -368.74988415 379.04626668 -366.5 377.375 C-363.6809082 377.03442383 -363.6809082 377.03442383 -360.30078125 377.08203125 C-359.09228516 377.09169922 -357.88378906 377.10136719 -356.63867188 377.11132812 C-355.37603516 377.13646484 -354.11339844 377.16160156 -352.8125 377.1875 C-351.53826172 377.20103516 -350.26402344 377.21457031 -348.95117188 377.22851562 C-345.80035943 377.26391801 -342.65038955 377.3133021 -339.5 377.375 C-339.53738281 376.39402344 -339.57476562 375.41304688 -339.61328125 374.40234375 C-339.61001756 370.07577545 -338.72291373 366.12057146 -337.6875 361.9375 C-337.4390332 360.86918945 -337.4390332 360.86918945 -337.18554688 359.77929688 C-336.29671197 356.08643942 -335.24031766 352.56910407 -333.86328125 349.02734375 C-332.32515223 345.55631506 -332.32515223 345.55631506 -332.5 342.375 C-334.25578046 340.97095558 -334.25578046 340.97095558 -336.5859375 339.78125 C-337.43414062 339.30816406 -338.28234375 338.83507812 -339.15625 338.34765625 C-340.50203125 337.61869141 -340.50203125 337.61869141 -341.875 336.875 C-343.63632578 335.91265243 -345.3943077 334.94415248 -347.1484375 333.96875 C-348.32672119 333.32969727 -348.32672119 333.32969727 -349.52880859 332.67773438 C-351.5 331.375 -351.5 331.375 -353.5 328.375 C-353.81943205 324.86124741 -353.83474496 322.2453369 -352.5625 318.9375 C-349.69147495 316.76248102 -347.52010547 316.94934359 -343.98901367 317.01196289 C-339.59749911 317.65249081 -336.2850977 319.91709677 -332.625 322.3125 C-331.14970615 323.24030159 -329.67319322 324.1661683 -328.1953125 325.08984375 C-327.2364917 325.71040649 -327.2364917 325.71040649 -326.25830078 326.34350586 C-324.36772447 327.53424505 -324.36772447 327.53424505 -321.5 328.375 C-321.23445313 327.79234375 -320.96890625 327.2096875 -320.6953125 326.609375 C-316.4324573 318.64090058 -307.9666846 310.39916666 -300.5 305.375 C-299.84 305.375 -299.18 305.375 -298.5 305.375 C-302.49512474 297.02729138 -302.49512474 297.02729138 -307.375 289.1875 C-309.70484059 285.58341003 -310.19351224 282.56216052 -309.9140625 278.296875 C-309.5 276.375 -309.5 276.375 -307.9375 274.3125 C-304.50050305 272.9905781 -302.15527083 272.86197953 -298.5 273.375 C-293.96902238 277.13863464 -291.42749314 281.58591544 -288.6875 286.6875 C-288.28080078 287.42806641 -287.87410156 288.16863281 -287.45507812 288.93164062 C-286.46235772 290.74189548 -285.48009307 292.55787755 -284.5 294.375 C-280.37665345 293.78333637 -276.66820111 292.84063959 -272.75 291.4375 C-264.8820147 288.7563402 -257.8305908 287.25323741 -249.5 287.375 C-249.51571045 286.57280029 -249.5314209 285.77060059 -249.54760742 284.9440918 C-249.60988583 281.31696596 -249.64896864 277.68995251 -249.6875 274.0625 C-249.71263672 272.79986328 -249.73777344 271.53722656 -249.76367188 270.23632812 C-249.77333984 269.02783203 -249.78300781 267.81933594 -249.79296875 266.57421875 C-249.8086792 265.45877686 -249.82438965 264.34333496 -249.84057617 263.1940918 C-249.5 260.375 -249.5 260.375 -248.11645508 258.51245117 C-245.9871637 257.01413241 -244.5867275 256.97413272 -242 257 C-241.2265625 256.99226563 -240.453125 256.98453125 -239.65625 256.9765625 C-236.96492224 257.47387306 -236.11965971 258.19240978 -234.5 260.375 C-233.49879992 263.48463971 -233.38342467 266.32404357 -233.40234375 269.578125 C-233.40556641 270.5578125 -233.40878906 271.5375 -233.41210938 272.546875 C-233.42048828 273.56265625 -233.42886719 274.5784375 -233.4375 275.625 C-233.44201172 276.65625 -233.44652344 277.6875 -233.45117188 278.75 C-233.46293912 281.29172573 -233.47937989 283.83333319 -233.5 286.375 C-204.88093142 283.01003444 -204.88093142 283.01003444 -180.5 269.375 C-180.82798584 268.89144043 -181.15597168 268.40788086 -181.49389648 267.90966797 C-182.9859356 265.69686895 -184.46174569 263.47368926 -185.9375 261.25 C-186.45376953 260.48945313 -186.97003906 259.72890625 -187.50195312 258.9453125 C-190.22591996 254.81485299 -192.37076281 251.4760679 -192.5 246.375 C-191.36220128 244.04768444 -190.33159286 242.20659286 -188.5 240.375 C-182.8697479 239.81197479 -182.8697479 239.81197479 -180.5 240.375 C-176.34593289 243.87073635 -173.54399908 248.01396485 -170.6875 252.5625 C-170.28080078 253.19091797 -169.87410156 253.81933594 -169.45507812 254.46679688 C-166.5 259.11049107 -166.5 259.11049107 -166.5 261.375 C-151.00078877 249.57120256 -139.0928906 236.43827613 -129.5 219.375 C-130.58539063 218.84390625 -131.67078125 218.3128125 -132.7890625 217.765625 C-134.23448239 217.0523009 -135.67978889 216.33874699 -137.125 215.625 C-138.19427734 215.10292969 -138.19427734 215.10292969 -139.28515625 214.5703125 C-150.73971037 208.89557927 -150.73971037 208.89557927 -152.5 205.375 C-152.875 202 -152.875 202 -152.5 198.375 C-150.08532551 195.60522632 -148.55296756 194.51571188 -144.8984375 194.02734375 C-140.19240357 194.50876561 -136.48709239 196.35213009 -132.25 198.375 C-130.64206546 199.12808327 -129.03275365 199.87823506 -127.421875 200.625 C-126.71643555 200.96015625 -126.01099609 201.2953125 -125.28417969 201.640625 C-123.51332401 202.50187417 -123.51332401 202.50187417 -121.5 202.375 C-116.12223004 185.05119144 -113.92835393 168.44298827 -112.5 150.375 C-113.30219971 150.39071045 -114.10439941 150.4064209 -114.9309082 150.42260742 C-118.55803404 150.48488583 -122.18504749 150.52396864 -125.8125 150.5625 C-127.07513672 150.58763672 -128.33777344 150.61277344 -129.63867188 150.63867188 C-131.45141602 150.65317383 -131.45141602 150.65317383 -133.30078125 150.66796875 C-134.97394409 150.69153442 -134.97394409 150.69153442 -136.6809082 150.71557617 C-139.5 150.375 -139.5 150.375 -141.36254883 148.99145508 C-142.86086759 146.8621637 -142.90086728 145.4617275 -142.875 142.875 C-142.88273438 142.1015625 -142.89046875 141.328125 -142.8984375 140.53125 C-142.3881049 137.76945007 -141.74988415 137.04626668 -139.5 135.375 C-136.6809082 135.03442383 -136.6809082 135.03442383 -133.30078125 135.08203125 C-132.09228516 135.09169922 -130.88378906 135.10136719 -129.63867188 135.11132812 C-128.37603516 135.13646484 -127.11339844 135.16160156 -125.8125 135.1875 C-124.53826172 135.20103516 -123.26402344 135.21457031 -121.95117188 135.22851562 C-118.80035943 135.26391801 -115.65038955 135.3133021 -112.5 135.375 C-112.53351563 134.2303125 -112.56703125 133.085625 -112.6015625 131.90625 C-112.59562083 127.39850605 -111.88153046 123.25699532 -110.875 118.875 C-110.61638184 117.72281982 -110.61638184 117.72281982 -110.35253906 116.54736328 C-108.46087954 108.54633195 -105.60552681 100.97318893 -102.5 93.375 C-103.05985596 93.05748779 -103.61971191 92.73997559 -104.1965332 92.4128418 C-106.73806925 90.96772698 -109.27529751 89.51520872 -111.8125 88.0625 C-112.69357422 87.56298828 -113.57464844 87.06347656 -114.48242188 86.54882812 C-115.75375977 85.81889648 -115.75375977 85.81889648 -117.05078125 85.07421875 C-117.83106689 84.62908936 -118.61135254 84.18395996 -119.4152832 83.7253418 C-121.45387025 82.4048798 -122.98950943 81.27628182 -124.5 79.375 C-124.89281877 76.28155222 -125.13008105 74.32924795 -124.5 71.375 C-122.11049659 68.56381951 -120.5694329 67.5575861 -116.9375 66.9375 C-111.7769386 67.59429872 -108.01008383 70.18715494 -103.625 72.875 C-102.74585938 73.39964844 -101.86671875 73.92429687 -100.9609375 74.46484375 C-98.79999362 75.75671237 -96.64704086 77.06019973 -94.5 78.375 C-91.67193634 75.58528297 -88.93237722 72.78939597 -86.375 69.75 C-79.81551958 62.20230091 -72.94265311 54.81582089 -64.5 49.375 C-67.0313125 44.11076605 -69.66218327 39.04877295 -72.8125 34.125 C-75.08097814 30.3793733 -76.53780574 27.83756469 -75.5 23.375 C-74 20.5 -74 20.5 -71.5 18.375 C-66.09762533 17.43172823 -66.09762533 17.43172823 -63.5 18.375 C-59.32295176 22.6651212 -56.53244471 27.51454434 -53.6875 32.75 C-53.28080078 33.48605469 -52.87410156 34.22210938 -52.45507812 34.98046875 C-51.46431806 36.77549288 -50.48133959 38.57480842 -49.5 40.375 C-48.30246094 39.90449219 -47.10492188 39.43398438 -45.87109375 38.94921875 C-33.22586379 34.07563152 -21.20973332 30.12028364 -7.5 30.375 C-7.51571045 29.57280029 -7.5314209 28.77060059 -7.54760742 27.9440918 C-7.60988583 24.31696596 -7.64896864 20.68995251 -7.6875 17.0625 C-7.72520508 15.16854492 -7.72520508 15.16854492 -7.76367188 13.23632812 C-7.77333984 12.02783203 -7.78300781 10.81933594 -7.79296875 9.57421875 C-7.8086792 8.45877686 -7.82438965 7.34333496 -7.84057617 6.1940918 C-7.5 3.375 -7.5 3.375 -6.11645508 1.51245117 C-3.9871637 0.01413241 -2.5867275 -0.02586728 0 0 Z M-29.5 49.375 C-30.1408252 49.58398926 -30.78165039 49.79297852 -31.44189453 50.00830078 C-45.82400361 54.84825934 -57.63723485 62.82596092 -68.5 73.375 C-69.11101562 73.92414063 -69.72203125 74.47328125 -70.3515625 75.0390625 C-85.88261354 89.43542488 -96.68124202 112.92198179 -97.67358398 134.07519531 C-97.70178516 135.45109516 -97.72574484 136.82708663 -97.74609375 138.203125 C-97.77735626 139.73210447 -97.80902808 141.26107561 -97.84106445 142.79003906 C-97.85642242 143.58059692 -97.8717804 144.37115479 -97.88760376 145.18566895 C-98.63912327 181.92601008 -104.46186318 216.97120764 -128.5 246.375 C-128.94601563 246.92494629 -129.39203125 247.47489258 -129.8515625 248.04150391 C-153.67879036 277.24419259 -187.14030148 296.45661102 -224.83544922 300.64868164 C-231.03078989 301.25130358 -237.21933827 301.57289641 -243.4375 301.8125 C-267.0650275 302.77941875 -287.62417385 312.46580904 -304.0859375 329.5546875 C-319.48247022 347.54222249 -326.0314484 369.12917922 -324.75 392.59570312 C-323.1007152 410.93111148 -314.90512928 427.95490559 -302.5 441.375 C-301.62214844 442.35533203 -301.62214844 442.35533203 -300.7265625 443.35546875 C-294.19178892 450.30441812 -286.2672082 455.16980778 -277.875 459.5625 C-277.28533447 459.883396 -276.69566895 460.20429199 -276.08813477 460.53491211 C-261.47212235 467.89709394 -246.21623372 468.00275771 -230.25 467.8125 C-229.18897064 467.80534973 -228.12794128 467.79819946 -227.03475952 467.79083252 C-194.50503059 467.56247209 -162.49797536 463.69613675 -131.5 453.375 C-130.2305957 452.96193604 -130.2305957 452.96193604 -128.93554688 452.54052734 C-86.25229764 438.58174743 -47.1648973 417.22039707 -13.5 387.375 C-12.54351562 386.529375 -11.58703125 385.68375 -10.6015625 384.8125 C1.61227744 373.81022059 13.38164339 362.35328566 23.5 349.375 C24.40186092 348.28260034 25.30701284 347.19291216 26.21484375 346.10546875 C49.81927488 317.63134428 67.05109093 284.85143025 79.49682617 250.16064453 C80.17484143 248.2779105 80.86278101 246.39872546 81.55981445 244.52294922 C83.61347047 238.98483878 85.45927681 233.46887999 86.9375 227.75 C87.14286377 226.95932129 87.34822754 226.16864258 87.55981445 225.35400391 C91.72024101 208.91755593 95.0005089 192.27042876 96.5 175.375 C96.61085938 174.28058594 96.72171875 173.18617188 96.8359375 172.05859375 C98.49671405 152.69034829 99.85531611 131.985583 93.5 113.375 C93.29101074 112.74142578 93.08202148 112.10785156 92.86669922 111.45507812 C88.02727492 97.05643145 80.05431179 85.25318057 69.5 74.375 C68.58347656 73.34826172 68.58347656 73.34826172 67.6484375 72.30078125 C53.59213811 57.07810809 30.11921424 46.74080734 9.62768555 45.15234375 C-3.87930995 44.63808709 -16.6243122 45.08967162 -29.5 49.375 Z " fill="#000000" transform="translate(369.5,-0.375)"/>
<path d="M0 0 C1.54045755 1.33180026 3.06205555 2.68577641 4.5625 4.0625 C5.31789063 4.72636719 6.07328125 5.39023438 6.8515625 6.07421875 C20.94075381 19.17087252 30.27709712 38.55758774 31.86425781 57.70239258 C32.00157208 61.61712067 32.03549471 65.52138562 32 69.4375 C31.99729095 70.14471191 31.99458191 70.85192383 31.99179077 71.58056641 C31.90179012 87.28754083 30.09059656 102.55784009 27.5625 118.0625 C27.32152588 119.64490479 27.32152588 119.64490479 27.07568359 121.25927734 C16.18776606 191.50500075 -25.45623215 261.31757485 -81.4375 305.0625 C-82.60107244 306.01304295 -83.76239584 306.96634331 -84.921875 307.921875 C-98.54980683 319.10307938 -113.10603626 328.39629925 -128.4375 337.0625 C-129.14793457 337.46968262 -129.85836914 337.87686523 -130.59033203 338.29638672 C-151.40722201 350.14007429 -175.16000819 359.8427092 -198.4375 365.5625 C-199.65433472 365.86377808 -199.65433472 365.86377808 -200.89575195 366.17114258 C-213.59052725 369.18170124 -226.5323835 371.1900189 -239.4375 373.0625 C-240.71826416 373.25158936 -241.99902832 373.44067871 -243.31860352 373.63549805 C-254.5019805 375.17952054 -265.64193007 375.46736679 -276.92163086 375.48803711 C-279.99998084 375.49999993 -283.07636254 375.54944029 -286.15429688 375.59960938 C-308.57942361 375.78231278 -325.87340618 369.44644626 -342.55859375 354.11328125 C-349.02954576 347.49096194 -352.79231769 339.46199342 -356.4375 331.0625 C-356.89640625 330.01191406 -357.3553125 328.96132813 -357.828125 327.87890625 C-363.5970407 312.25814507 -361.37961302 294.92064692 -355.1171875 279.89453125 C-347.83093771 264.18728784 -335.00398181 251.14139572 -318.87109375 244.62109375 C-311.87862354 242.0618059 -305.54813213 239.97807197 -298.0703125 239.88671875 C-254.83233538 239.02786384 -217.7202512 225.68970594 -185.08203125 197.3125 C-180.26623637 193.21516196 -180.26623637 193.21516196 -177.0625 192.625 C-173.12972064 193.28046323 -171.74197146 194.8769071 -169.4375 198.0625 C-169.17035563 201.66894898 -169.45877808 203.87534979 -171.80517578 206.72143555 C-176.16073422 210.981439 -180.70177868 214.8289306 -185.5625 218.5 C-186.67999634 219.34630981 -186.67999634 219.34630981 -187.82006836 220.2097168 C-218.14669689 242.90348824 -254.46566071 255.1391887 -292.30859375 255.59643555 C-306.36161333 255.90472618 -320.05511274 260.89183903 -330.3359375 270.66796875 C-336.8526726 278.09317064 -341.29317737 286.4396307 -343.4375 296.0625 C-343.70626953 296.96355469 -343.70626953 296.96355469 -343.98046875 297.8828125 C-346.76556729 311.16559016 -343.7032469 324.9061021 -336.375 336.1875 C-335.41226386 337.49145907 -334.43531533 338.78518457 -333.4375 340.0625 C-332.81875 340.949375 -332.2 341.83625 -331.5625 342.75 C-322.60053527 352.50272632 -309.72389369 358.57697516 -296.56176758 359.26513672 C-291.81194634 359.39651874 -287.06375383 359.39625434 -282.3125 359.375 C-281.45224213 359.37284485 -280.59198425 359.3706897 -279.70565796 359.36846924 C-234.4164637 359.18736062 -190.10717038 350.45223713 -149.4375 330.0625 C-148.5830127 329.64000977 -147.72852539 329.21751953 -146.84814453 328.78222656 C-110.5739562 310.74067749 -76.66506367 284.92889622 -51.4375 253.0625 C-50.4809962 251.8943329 -49.52256091 250.72774544 -48.5625 249.5625 C-22.01611285 217.18760739 -2.19794339 177.79519085 7.5625 137.0625 C7.77358398 136.20881836 7.98466797 135.35513672 8.20214844 134.47558594 C15.9468514 102.64383324 23.6426718 60.13243594 6.2109375 30.578125 C-2.39337014 17.44738064 -12.78827443 8.78648481 -27.4375 3.0625 C-28.41976563 2.64871094 -29.40203125 2.23492187 -30.4140625 1.80859375 C-46.17344091 -4.03500005 -63.41376485 -1.94862513 -78.60546875 4.3828125 C-94.02927807 11.53758336 -106.4741855 23.80177175 -112.8828125 39.6328125 C-115.92948782 47.97199808 -117.56874761 54.99451577 -117.6484375 63.81640625 C-117.67656861 65.57748226 -117.70523323 67.3385498 -117.734375 69.09960938 C-117.77507348 71.83682425 -117.81199835 74.57389212 -117.83886719 77.3112793 C-118.21686791 112.85964054 -127.0715846 158.6965846 -153.4375 185.0625 C-160.34160959 185.61044521 -160.34160959 185.61044521 -163.4375 184.0625 C-165.05277761 180.83194478 -164.94328587 177.56131985 -164.4375 174.0625 C-163.04266809 171.53200118 -161.73447614 169.50845553 -160 167.25 C-143.10568501 143.50452035 -134.63340446 113.84186636 -134.26171875 84.8984375 C-134.24971436 84.0572789 -134.23770996 83.2161203 -134.2253418 82.34947205 C-134.17691159 78.8363256 -134.12952803 75.32351149 -134.11157227 71.81005859 C-134.0221549 57.09883792 -132.83144162 42.94579262 -125.6875 29.75 C-125.34315918 29.09177246 -124.99881836 28.43354492 -124.64404297 27.75537109 C-112.99523011 6.04164489 -95.41035106 -7.06288112 -72.44140625 -14.96875 C-47.90967437 -21.85932748 -19.99620382 -15.44322203 0 0 Z " fill="#020301" transform="translate(420.4375,76.9375)"/>
<path d="M0 0 C17.10908692 4.71119785 29.49987694 16.31071616 38.39453125 31.359375 C39.74802097 33.86189979 40.90037961 36.37607823 42 39 C42.39445312 39.93328125 42.78890625 40.8665625 43.1953125 41.828125 C55.01912854 75.39784047 42.47187257 125.78156076 31 158 C30.71962891 158.80356934 30.43925781 159.60713867 30.15039062 160.43505859 C18.46714545 193.63430218 1.26121203 223.81780651 -21 251 C-21.6813501 251.83797119 -21.6813501 251.83797119 -22.37646484 252.69287109 C-33.88476979 266.76488726 -46.62843582 279.8489544 -61 291 C-62.16127991 291.94755571 -63.31996589 292.89829595 -64.4765625 293.8515625 C-92.71527021 317.03203854 -125.37420732 333.60969398 -160 345 C-160.77746582 345.25861816 -161.55493164 345.51723633 -162.35595703 345.78369141 C-191.64175283 355.39028457 -222.02739212 358.21942384 -252.6875 358.375 C-253.51629669 358.38294586 -254.34509338 358.39089172 -255.19900513 358.39907837 C-272.97701378 358.53064611 -287.70769431 355.52026041 -301.19140625 342.93359375 C-307.56857536 336.11566997 -311.28100868 328.88316419 -314 320 C-310.48992426 321.30462992 -307.46572711 322.86318898 -304.3125 324.875 C-295.94959466 329.98774781 -287.81633113 333.10463495 -278 333.375 C-276.783125 333.42398437 -275.56625 333.47296875 -274.3125 333.5234375 C-270.82333805 333.32669883 -270.82333805 333.32669883 -268.74609375 330.515625 C-268.16988281 329.68546875 -267.59367187 328.8553125 -267 328 C-264.0625 327.375 -264.0625 327.375 -261 328 C-258.125 330.375 -258.125 330.375 -256 333 C-256 333.66 -256 334.32 -256 335 C-189.10087119 333.40254059 -123.65122366 315.63735272 -72.66015625 270.32421875 C-70 268 -70 268 -67.62109375 266.26953125 C-65.3881352 264.73557271 -65.3881352 264.73557271 -63 262 C-62.92839177 259.23482062 -63.52074135 256.74484499 -64 254 C-62.4375 251.0625 -62.4375 251.0625 -60 249 C-56.23218649 247.90105439 -53.71661625 247.95870665 -50 249 C-35.80657421 234.43921495 -23.96020252 217.68917687 -14 200 C-13.5143457 199.14100098 -13.02869141 198.28200195 -12.52832031 197.39697266 C7.2974253 161.91563666 20.61255826 120.6446026 21.375 79.75 C21.41238281 78.97398437 21.44976562 78.19796875 21.48828125 77.3984375 C21.55530908 73.03418079 21.5058437 71.56535472 18.4765625 68.1796875 C17.65929687 67.46039063 16.84203125 66.74109375 16 66 C16 62.34825108 16.24499232 60.06387446 18.375 57.0625 C20 56 20 56 23 56 C20.61842274 35.49041702 15.75792278 18.85713635 2 3 C1.34 2.01 0.68 1.02 0 0 Z " fill="#9CC93A" transform="translate(391,79)"/>
<path d="M0 0 C2.9375 2.0625 2.9375 2.0625 5 5 C5.06625411 8.8427383 4.81899419 10.99200716 2.375 14 C-1.11581787 15.46981805 -3.39148956 14.98413921 -7 14 C-9 12.375 -9 12.375 -10 10 C-9.87890756 6.54886548 -9.63213135 4.03137221 -7.8125 1.0625 C-4.99452602 -0.58941578 -3.20595185 -0.5129523 0 0 Z " fill="#060702" transform="translate(130,407)"/>
<path d="M0 0 C2.9375 2.0625 2.9375 2.0625 5 5 C5.06625411 8.8427383 4.81899419 10.99200716 2.375 14 C-1.11581787 15.46981805 -3.39148956 14.98413921 -7 14 C-9 12.375 -9 12.375 -10 10 C-9.87890756 6.54886548 -9.63213135 4.03137221 -7.8125 1.0625 C-4.99452602 -0.58941578 -3.20595185 -0.5129523 0 0 Z " fill="#060702" transform="translate(100,377)"/>
<path d="M0 0 C4.36689189 1.42398649 4.36689189 1.42398649 5.875 3.9375 C6.37073337 7.83254791 6.45516848 10.03243717 4.3125 13.375 C0.90780512 15.55749672 -1.15930012 15.57484462 -5.125 14.9375 C-7.625 12.8125 -7.625 12.8125 -9.125 9.9375 C-9.20604732 5.96618124 -8.5938579 4.45994166 -5.9375 1.5 C-3.125 -0.0625 -3.125 -0.0625 0 0 Z " fill="#070803" transform="translate(336.125,327.0625)"/>
<path d="M0 0 C2.9375 2.0625 2.9375 2.0625 5 5 C5.06625411 8.8427383 4.81899419 10.99200716 2.375 14 C-1.11581787 15.46981805 -3.39148956 14.98413921 -7 14 C-9 12.375 -9 12.375 -10 10 C-9.87890756 6.54886548 -9.63213135 4.03137221 -7.8125 1.0625 C-4.99452602 -0.58941578 -3.20595185 -0.5129523 0 0 Z " fill="#060702" transform="translate(387,165)"/>
<path d="M0 0 C2.9375 2.0625 2.9375 2.0625 5 5 C5.06625411 8.8427383 4.81899419 10.99200716 2.375 14 C-1.11581787 15.46981805 -3.39148956 14.98413921 -7 14 C-9 12.375 -9 12.375 -10 10 C-9.87890756 6.54886548 -9.63213135 4.03137221 -7.8125 1.0625 C-4.99452602 -0.58941578 -3.20595185 -0.5129523 0 0 Z " fill="#060702" transform="translate(417,135)"/>
<path d="M0 0 C2.9375 2.0625 2.9375 2.0625 5 5 C5.06625411 8.8427383 4.81899419 10.99200716 2.375 14 C-1.11581787 15.46981805 -3.39148956 14.98413921 -7 14 C-9 12.375 -9 12.375 -10 10 C-9.87890756 6.54886548 -9.63213135 4.03137221 -7.8125 1.0625 C-4.99452602 -0.58941578 -3.20595185 -0.5129523 0 0 Z " fill="#060702" transform="translate(372,90)"/>
</svg>
